<?xml version="1.0" encoding="utf-8"?>
<!-- Generator: Adobe Illustrator 19.2.0, SVG Export Plug-In . SVG Version: 6.00 Build 0)  -->
<svg version="1.1" id="Laag_1" xmlns="http://www.w3.org/2000/svg" xmlns:xlink="http://www.w3.org/1999/xlink" x="0px" y="0px"
	 viewBox="0 0 2999.8 2999.6" style="enable-background:new 0 0 2999.8 2999.6;" xml:space="preserve">
<style type="text/css">
	.st0{fill:#FFFFFF;}
</style>
<g>
	<path d="M0,0c999.8,0,1999.8,0,2999.8,0c0,999.7,0,1999.6,0,2999.6c-999.9,0-1999.7,0-2999.8,0 M909.1,1274.3
		c0.3,3.3,0.9,6.5,1,9.8c0.1,23,0,46,0.1,68.9c0,3.3,0.3,6.5,0.4,10.3c30.3,0,60.1,0,90.3,0c0-30.1,0-59.5,0-89.4
		c-2.4-0.3-4.4-0.6-6.3-0.6c-26.3,0-52.6-0.1-78.9,0c-2.3,0-4.5,0.7-6.8,1.2c0.4-2.6,1.2-5.1,1.2-7.7c0.1-26.1,0.1-52.2,0-78.3
		c0-2.6-0.8-5.2-1.2-7.7c4.3,0.4,8.5,1.2,12.8,1.2c83.2,0.1,166.5,0,249.7,0.1c3.8,0,7.7,0.3,11.3,0.4c2.3,24.2,1.2,265.4-1.4,273.3
		c-29.2,0-58.7,0-89.2,0c0,10.8,0,20.7,0,30.6c0,9.7,0.2,19.3-0.1,29c-0.3,9.8,1.2,19.7-1.1,30.1c-4.5,0-8.5,0-12.4,0
		c-25.6,0.2-51.2,0.3-76.9,0.5c-0.2-29.9-0.3-59.7-0.5-90.5c-13,0-24.9,0-36.8,0c-12,0-24,0-36,0c-12.3,0-24.6,0-37,0
		c-12,0-24,0.1-36,0c-11.8-0.1-23.7,0.3-36.3-0.3c0-30.8,0-60.3,0-90.3c-30.6,0-60.4,0-91.1,0c0,4.6,0,8.5,0,12.5
		c0,112.6,0,225.1,0,337.7c0,4.3-0.1,8.7-0.2,13c-1.7-0.2-3.3-0.5-5-0.5c-56.3,0-112.7,0-169,0c-2.3,0-4.5,0.4-7.3,0.6
		c0,29.9,0,59.4,0,89.5c3.8,0.2,7,0.4,10.2,0.4c54,0,108,0,162,0c3,0,6-0.3,9-0.5c0.9,30.4-0.6,60.9,0.8,91.2c30.7,0,60.2,0,91.1,0
		c0-30.8,0-61,0-91.2c30,0,60.1,0,90.1,0c0.9,30.4-0.6,60.9,0.8,91.2c30.7,0,60.2,0,91.1,0c0-30.8,0-61,0-91.2c1,0.1,2,0.4,3,0.4
		c57.6,0,115.1,0.1,172.7,0c1.8,0,3.7-0.6,6.5-1.2c0-29.9,0-59.3,0-89.7c30.5,0,60,0,90.3,0c0-8.6,0-16.2,0-23.8
		c-0.2-22.6-0.4-45.2-0.6-67.8c29.6,0.1,59.2,0.3,88.8,0.3c0.8,0,1.7-0.8,3.4-1.7c0-29.3,0-58.9,0-88.5c30.1,0,60.1,0,90.2,0.1
		c0.1,29.9,0.3,59.7,0.4,90.5c30.3,0,59.5,0,89.2,0c0,30.7,0,60.5,0,91.2c-10.5,0-20.4,0-30.4,0c-9.7,0-19.3-0.1-29,0
		c-9.8,0.1-19.7-0.7-29.3,0.5c0,61,0,120.7,0,180.9c29.8,0,59,0,89.4,0c0-30.3,0-60,0-90.8c8.8,0,16.4,0,24,0
		c22.6-0.2,45.3-0.4,67.9-0.6c-0.1,29.6-0.3,59.2-0.3,88.8c0,0.8,0.8,1.7,1.6,3.1c14.5,0,29.1,0,43.7,0c15,0,30,0.2,44.9,0.3
		c0.1,29.9,0.3,59.7,0.4,90.3c30.9,0.4,60.7-0.1,90.3,0.3c2.1,18.7,1.3,84-1.3,91.6c-59.5,0-119.3,0-179.2,0c0,30.4,0,59.9,0,90.4
		c30.1,0,59.5,0,89.8,0c0,31.3,0,61.5,0,91.7c-2-0.2-4-0.5-5.9-0.5c-86.1,0-172.1,0-258.2,0c-2.9,0-5.9,0.7-8.8,1.1
		c0.4-3.9,1.1-7.9,1.1-11.8c0.1-53.3,0.1-106.7,0.1-160c0-3.5,0-7.1,0-11.6c30.6,0,59.8,0,89.3,0c0-30.7,0-60.5,0-91.3
		c-90.6,0-180.4,0-271.3,0c0-30.5,0-60,0-89.2c-12.9-2.1-174-1.6-181.3,0.4c0,59.8,0,119.6,0,180.4c13.6,0,26.5,0,39.4,0
		c13,0,26,0,39,0s26,0,39,0c12.7,0,25.3,0,38,0c13,0,26,0,39,0c13,0,26-0.1,39,0c12.8,0.2,25.7-0.7,39.2,0.6c0,4.6,0,8.2,0,11.8
		c0,53,0,106,0.1,159c0,3.9,0.8,7.9,1.2,11.8c-2.6-0.4-5.2-1.1-7.8-1.1c-25.6-0.1-51.3-0.1-76.9,0c-2.2,0-4.5,0.4-7.3,0.6
		c0,29.9,0,59.3,0,89.4c30.2,0,60,0,90.3,0c0.2-3.8,0.4-7.1,0.4-10.3c0-23,0-46,0.1-68.9c0-3.3,0.6-6.5,1-9.8c1.9-0.3,3.8-1,5.7-1
		c25.7-0.1,51.5-0.1,77.2,0c1.9,0,3.9,0.6,5.8,0.8c0.3,3.3,0.8,6.6,0.8,9.8c0.1,23,0,46,0.1,69c0,3.3,0.3,6.5,0.5,11.1
		c30,0,59.4,0,88.6,0c2.1,17.8,1.3,83.9-1.3,91.7c-28.8,0-57.9,0-87.2,0c0,60.5,0,120,0,179.6c29.9,0,59.1,0,89.3,0
		c0-30,0-59.5,0-89.9c31.3,0,61.5,0,91.8,0c-0.1,29.3-0.2,58.5-0.2,87.8c0,0.6,0.6,1.1,0.9,1.7c12.8,1.9,82.2,1.4,89-0.7
		c0-29.6,0-59.2,0-88.8c1.3-0.1,2.7-0.2,4-0.2c87,0,173.9,0,260.9,0c2.6,0,5.2,0.4,8.9,0.6c0,10.3,0,20.2,0,30.1c0,10-0.1,20,0,30
		c0.1,9.8-0.4,19.7,0.3,29.3c212.5,0,423.6,0,634.6,0c2.1-13.9,1.5-627.7-0.8-635.6c-59.2,0-118.8,0-179.4,0c0-12.8,0-24.7,0-36.6
		c0-12,0-24,0-36c0-12.3,0-24.7,0-37c0-12,0-24,0-36c0-11.8,0.2-23.7-0.2-36.4c-31,0-60.6,0-90.2,0c-0.1-1.3-0.2-2.7-0.2-4
		c0-86.5,0-173.1,0-259.6c0-2.6,0.7-5.1,1.1-7.7c1.9-0.4,3.8-1.1,5.8-1.1c26-0.1,52-0.1,78,0c1.6,0,3.2,0.3,5.8,0.5
		c0,15.4,0,30.3,0,45.2c0,15,0,30,0,45c0,15.3,0,30.7,0,46c0,14.8,0.1,29.7,0.2,45.5c30.6,0,59.7,0,89.9,0c0,30.5,0,59.9,0,89.7
		c30.8,0,60.6,0,90.6,0c0-60.6,0-120.4,0-181.5c-30.4,0-60.1,0-90,0c0-30.8,0-60.2,0-90.3c30.5-0.6,60.3,0.4,89.9-0.6
		c0-91.2,0-181,0-271.5c-30.5-0.5-60.3,0.3-91-0.5c0-61.2,0-121,0-181.1c-30.2,0-59.3,0-89.1,0c0,90.7,0,180.8,0,272.2
		c29.9,0,59.3,0,88.5,0c2,17.4,1.3,83.8-1.1,91.2c-14.8,0-29.7,0-44.7,0c-14.7,0-29.3,0-44,0c-15,0-30,0-45,0
		c-14.8,0-29.7,0.1-44.5,0.2c-0.3,2.7-0.5,4-0.5,5.3c0,26-0.1,52,0,78c0,2.6,0.8,5.2,1.2,7.8c-3.2-0.4-6.5-1.1-9.7-1.2
		c-10.9-0.1-21.9-0.1-32.8,0c-16.9,0.1-33.8,0.4-50.6,0.6c0.2-2.3,0.5-4.6,0.6-6.9c0-55.8,0-111.6,0-167.4c0-2.9-0.8-5.8-1.2-8.7
		c2.6,0.4,5.2,1.1,7.8,1.1c25.6,0.1,51.3,0.1,76.9,0c2.2,0,4.5-0.4,7.3-0.6c0-29.9,0-59.3,0-89.4c-30.2,0-60,0-90.3,0
		c-0.2,3.8-0.4,7.1-0.4,10.3c0,23,0,46-0.1,68.9c0,3.3-0.6,6.5-1,9.8c-1.6,0.3-3.2,1-4.8,1c-26.3,0.1-52.6,0.1-79,0
		c-1.8,0-3.7-0.7-5.3-1.1c-0.2-0.9-0.3-1.2-0.3-1.6c-0.1-88-0.2-175.9-0.3-263.9c0-1-0.1-2-0.2-3c0-0.3,0-0.7-0.2-1
		c-0.1-0.3-0.4-0.5-0.6-0.8c-0.2-0.2-0.5-0.5-0.8-0.7c-29.5,0-59,0-89.6,0c0,12.5,0,24.4,0,36.3c0,12,0,24,0,36c0,12.3,0,24.7,0,37
		c0,12,0,24,0,36c-0.1,11.8,0.3,23.7-0.3,36.2c-5.3,0-9.3,0-13.2,0c-25.6,0.2-51.3,0.3-76.9,0.5c-0.1-4-0.2-8-0.2-12
		c0-52.9,0-105.8,0-158.7c0-3.6,0-7.1,0-11.2c-30.8,0-60.6,0-91.3,0c0,10.5,0,20.4,0,30.3c0,10,0.1,20,0,29.9
		c-0.1,9.8,0.4,19.7-0.3,29.6c-31,0-60.5,0-90.1,0c0-60.7,0-121.5,0-182.2c29.3,0.1,58.6,0.2,87.9,0.2c0.6,0,1.1-0.6,1.7-0.9
		c2-13.7,1.3-264-0.7-271c-29.6,0-59.2,0-88.8,0c-0.1-58.9-0.1-117.8-0.2-176.8c0-1.6,0.3-3.2,0.5-5.7c30,0,59.4,0,89.5,0
		c0-60.8,0-120.5,0-180.1c-11-2.1-82.5-1.7-90.3,0.7c0,29.2,0,58.7,0,88.8c-4.1,0.2-7.3,0.5-10.6,0.5c-23.6,0-47.3,0-70.9,0.1
		c-3.6,0-7.2,0.8-10.8,1.2c0.4-2.6,1.1-5.2,1.1-7.8c0.1-25.6,0.1-51.3,0-76.9c0-2.2-0.4-4.5-0.6-7.3c-29.9,0-59.3,0-89.4,0
		c0,30.2,0,60,0,90.3c3.8,0.2,7.1,0.4,10.3,0.4c23,0,46,0,68.9,0.1c3.3,0,6.5,0.6,9.8,1c0.3,1.6,1,3.2,1,4.8c0.1,26.3,0.1,52.6,0,79
		c0,1.5-0.6,3.1-1.1,5.6c-29.9,0-59.3,0-89.7,0c0,60.9,0,120.7,0,181.7c-4.5,0-8.1,0-11.6,0c-53,0-105.9,0-158.9,0.1
		c-3.9,0-7.9,0.8-11.8,1.2c0.4-3.9,1.2-7.9,1.2-11.8c0.1-53.3,0.1-106.6,0.1-160c0-3.5,0-7.1,0-11.6c30.5,0,59.7,0,89.3,0
		c0-30.4,0-59.8,0-89.2c-60.2,0-119.7,0-180.1,0c0,29.8,0,59,0,88.6c-30.7,0-60.5,0-91.1,0c0-12.6,0-24.6,0-36.5c0-12,0-24,0-36
		s0-24,0-36s0.1-24,0-36c-0.1-11.8,0.3-23.7-0.3-35.3c-16.8-1.8-82.7-1.2-90.4,0.8c0,9.8,0,19.8,0,29.7c0,10,0.1,20,0,30
		c-0.1,9.8,0.6,19.7-0.6,30.3c-30.8,0-60.3,0-89.7,0c-2.2,15.1-1.5,82.4,1.1,90c29.2,0,58.7,0,88.5,0c0,30.4,0,59.9,0,90
		c-30.4,0.7-60.2-0.2-89.8,0.5c-2.1,17.7-1.3,83.9,1.1,91.1c3.8,0,7.8,0,11.8,0c56,0.1,112,0.1,167.9,0.2c0.1,4,0.3,8,0.3,12
		c0,82.7,0,165.3,0,248c0,3.9,0,7.8,0,11.4c14.4,2,83.7,1.4,91.3-0.8c0-3.7,0-7.7,0-11.6c0-82.3,0-164.7,0-247c0-4,0.2-8,0.3-12
		c28.2-0.1,56.4-0.1,84.6-0.1c1.6,0,3.2,0.6,4.8,0.9c0.3,3.3,0.9,6.5,1,9.8c0.1,23.3,0,46.5,0.1,69.8c0,3.2,0.2,6.3,0.3,10.1
		c4.2,0,7.2,0,10.1,0c84.1,0,168.2,0,252.3,0c3,0,6-0.3,8.9-0.5c0,30.8,0,61.6,0,92.3c-29.3-0.1-58.6-0.2-87.9-0.2
		c-0.5,0-1.1,0.6-2.5,1.5c0,11.4,0,23.3,0,35.2c0,12,0,24,0,36c0,12.3,0,24.7,0,37c0,12,0.1,24,0,36c-0.1,11.8,0.4,23.7-0.3,35.3
		c-31,0-60.5,0-91,0c0-12.6,0-24.5,0-36.4c0-12,0-24,0-36c0-12.3,0-24.7,0-37c0-12,0.1-24,0-36c-0.1-11.8,0.4-23.7-0.3-35.2
		c-30.5,0-59.7,0-89,0c0,90.9,0,181,0,272.1c29.9,0,59,0,89.1,0c0,31.2,0,61.4,0,91.7c-1.7-0.2-3.3-0.5-5-0.5
		c-56.3,0-112.6,0-168.9,0c-1.9,0-3.8,0.3-6.7,0.6c0,30,0,59.5,0,89.3c-30.8,0-60.5,0-90.2,0c-2.2-15.6-1.4-174,1.1-181.7
		c29.2,0,58.7,0,88.7,0c0-30.4,0-59.8,0-89.7c-151.6,0-302.6,0-454.3,0c-0.2,3.8-0.4,7-0.4,10.3c0,23,0,46-0.1,68.9
		c0,3.3-0.6,6.5-1,9.8c-1.9,0.3-3.8,1-5.7,1c-25.7,0.1-51.4,0.1-77.2,0c-1.9,0-3.8-0.7-5.6-1.1c-0.4-3.3-1.1-6.5-1.1-9.8
		c-0.1-23,0-46-0.1-69c0-3.2-0.3-6.5-0.4-10c-151.4,0-302.2,0-452.9,0c0,60.6,0,120.4,0,180.6c30.1,0,59.6,0,90.3,0
		c0-30.4,0-60.2,0-89.7c16.8-2.2,173.7-1.4,181.1,1c0,3.5,0,7.1,0,10.7c0,23,0,46,0.1,69c0,3.6,0.7,7.2,1.1,10.8
		c-2.6-0.4-5.2-1.1-7.8-1.1c-25.7-0.1-51.3-0.1-77,0c-2.2,0-4.5,0.4-7.7,0.7c0,12.3,0,24.3,0,36.2c0,12,0,24,0,36
		c0,12.3,0,24.7,0,37c0,12,0.1,24,0,36c-0.1,11.8,0.4,23.7-0.4,36.5c-60.7,0-120.1,0-179.4,0c-2.3,21.1-1.3,446.1,1,453.1
		c29.2,0,58.4,0,88.8,0c0-60.7,0-120.9,0-181c0-60.5,0-121,0-182.5c21.2,0,41.1,0,61.1,0c20,0,40,0,60,0c19.8-0.1,39.7,0.3,60.3-0.2
		c0-5.2,0-9.2,0-13.1c0-82,0-163.9,0-245.9c0-3.9,0.6-7.9,0.8-11.9c3.3-0.3,6.6-0.8,9.8-0.8c23.3-0.1,46.6,0,69.9-0.1
		c3.2,0,6.3-0.2,10.3-0.4c0-30.8,0-60.3,0-90.4c4.1-0.2,7.4-0.5,10.6-0.5c23.6,0,47.3,0,70.9-0.1c3.6,0,7.2-0.8,10.8-1.2
		c-0.4,2.6-1.2,5.2-1.2,7.8c-0.1,25.7-0.1,51.3,0,77c0,2.2,0.4,4.5,0.7,7.4c3.7,0.2,6.9,0.4,10.1,0.4c23,0,46,0,69,0.1
		C902.6,1273.4,905.8,1274,909.1,1274.3z M1273.9,2545.9c-3.6-0.2-7.3-0.5-10.9-0.5c-23,0-46,0-69,0c-3.2,0-6.4,0-10.5,0
		c0-61.6,0-121.8,0-182.1c0-60.2,0-120.3,0-180.2c-15.9-2.1-83.9-1.4-90.7,0.7c0,150.4,0,300.9,0,451.2c12.7,2,173.8,1.4,180.9-0.5
		c0-29.6,0-59.2,0-88.8c30.4-1,60.9,0.5,91.1-0.8c0-30.5,0-59.6,0-88.7c-17-1.9-83.1-1.2-90.9,1.2
		C1273.9,2486.7,1273.9,2516.3,1273.9,2545.9z M364.3,2000.2c19,106.7,28.8,212.1,29,318.2c0.2,106.1-10.3,211.4-28.9,317.7
		c106-19,211.3-29,317.3-29c106.5,0,212.3,10,318.3,28.8c-0.7-5.1-1-8.7-1.6-12.2c-1.3-7.5-2.9-14.9-4-22.5
		c-2.2-15-4.2-30.1-6.1-45.2c-2.7-21.7-5.5-43.3-7.8-65.1c-2.1-18.8-4.1-37.6-5.2-56.4c-1.5-24.2-2.4-48.3-3.2-72.5
		c-0.6-18.5-0.7-37-0.5-55.6c0.3-20.9,1-41.8,1.9-62.6c0.9-19.9,2.1-39.8,3.6-59.6c1.1-15.2,2.7-30.4,4.2-45.5
		c1.7-17.1,3.1-34.3,5.5-51.3c3.7-26.2,8.2-52.2,12.2-78.4c0.4-2.7,0.1-5.6,0.1-8.8c-105.4,18.2-210.5,28.4-316.5,28.5
		C576.3,2029.1,471.2,2018.5,364.3,2000.2z M365.1,363.3c0.3,4.5,0.2,7.4,0.7,10.2c1.6,9.4,3.7,18.8,5.1,28.3
		c3.3,22.3,6.5,44.5,9.2,66.8c2,16.4,3.5,32.9,4.9,49.4c1.8,21.8,3.6,43.6,4.9,65.4c1.1,17.9,1.6,35.7,2,53.6
		c0.6,23.5,1.3,47.1,1,70.7c-0.3,22.9-1.6,45.8-2.8,68.6c-1.1,19.8-2.3,39.7-4.1,59.4c-2,22.1-4.2,44.2-7,66.3
		c-3.3,25-7.3,49.9-11.1,74.8c-1,6.7-2.2,13.4-3.5,21.4c4.9-0.3,8.5-0.3,12-0.9c5.9-1,11.6-2.5,17.5-3.4c16.4-2.5,32.8-4.8,49.2-7
		c21-2.7,42-5.5,63.1-7.6c17.8-1.8,35.6-3.1,53.4-4.2c26.2-1.6,52.3-3,78.5-4c17.2-0.7,34.5-0.6,51.8-0.6c20.2,0.1,40.5,0.1,60.7,1
		c19.2,0.8,38.4,2.2,57.6,4c33.4,3,66.9,4.2,100.1,9.6c24.6,4,49.3,7.3,73.9,11c5.7,0.8,11.3,1.7,18.1,2.8
		c-18.6-106.1-28.9-211.4-28.8-317.5c0-106.4,10.2-212,28.7-318.2c-106.2,18.9-211.6,28.9-317.7,29.1
		C576.2,392.4,470.9,382,365.1,363.3z M2001.3,363.1c18.9,106.2,28.7,211.5,29,317.5c0.2,106.2-10.2,211.5-28.6,317.4
		c4.6-0.3,8.5-0.2,12.2-0.8c5.5-0.9,11-2.4,16.5-3.3c18-2.7,36.1-5.3,54.2-7.6c19-2.4,38.1-4.8,57.2-6.7c18.1-1.8,36.3-3.1,54.4-4.4
		c20.5-1.5,41.1-3.2,61.6-3.9c22.6-0.8,45.1-0.7,67.7-0.8c14.9-0.1,29.9-0.2,44.8,0.4c19.9,0.8,39.7,1.9,59.5,3.5
		c38.7,3,77.5,4.8,115.9,10.9c23.9,3.8,48,7.1,71.9,10.6c6.1,0.9,12.1,2,19.2,3.1c-0.7-4.9-1-8.4-1.6-12c-1.3-7.8-2.8-15.6-4-23.4
		c-2.4-16.4-4.7-32.9-6.9-49.3c-2.3-17.7-4.9-35.4-6.6-53.2c-2.4-24.3-4.1-48.7-5.9-73.1c-1.1-15.2-2.5-30.5-2.9-45.7
		c-0.6-25.2-0.8-50.4-0.4-75.5c0.6-30.5,1.8-61,3.2-91.4c0.9-18.8,2.7-37.6,4.3-56.4c2-22.4,3.7-44.9,6.8-67.2
		c3.7-26.9,8.7-53.6,13-80.5c0.4-2.4-0.2-5-0.4-8.1c-105.5,18.8-211,28.8-317.2,28.9C2212.6,392.3,2107.4,381.9,2001.3,363.1z
		 M1182.8,999.5c0-60.9,0-120.7,0-181.5c-30.4,0.1-60.2-0.2-90.1,0.2c0,61.2,0,121,0,181.3C1122.9,999.5,1152.5,999.5,1182.8,999.5z
		 M2274.7,1091.8c0,30.3,0,59.7,0,89.5c30.3,0,60.1,0,90.1,0c0-30.1,0-59.5,0-89.5C2334.7,1091.8,2305.2,1091.8,2274.7,1091.8z"/>
	<path class="st0" d="M1727.9,2273.8c0-30.2,0-60.4,0-91.7c-30.3,0-59.8,0-89.8,0c0-30.5,0-60,0-90.4c59.9,0,119.7,0,179.2,0
		c2.6-7.6,3.4-72.9,1.3-91.6c-29.6-0.4-59.3,0.1-90.3-0.3c-0.1-30.6-0.3-60.4-0.4-90.3l-0.3,0.2c3.6-0.2,7.3-0.5,10.9-0.5
		c23.3,0,46.6,0,69.9,0c3.5,0,7-0.3,10.3-0.5c0-61.1,0-120.9,0-180.6c-14.7-2-174-1.3-181.1,0.8c0,29.5,0,59.1,0,88.7l0.4-0.4
		c-22.6,0.2-45.3,0.4-67.9,0.6c-7.6,0.1-15.2,0-24,0c0,30.8,0,60.5,0,90.8c-30.4,0-59.5,0-89.4,0c0-60.2,0-120,0-180.9
		c9.6-1.2,19.5-0.4,29.3-0.5c9.7-0.1,19.3,0,29,0c9.9,0,19.8,0,30.4,0c0-30.8,0-60.5,0-91.2c-29.7,0-58.9,0-89.2,0
		c-0.1-30.8-0.3-60.7-0.4-90.5c0,0-0.3,0.2-0.3,0.2c1.3-0.2,2.6-0.5,4-0.5c57.2,0,114.5,0,171.7,0c1.9,0,3.7,0.6,6.5,1.1
		c0,29.9,0,59.4,0,88.6c18.2,2.1,174.1,1.3,181.9-1.1c0-29.3,0-58.9,0-88.4c29.9,0,59.7,0,90.6,0c0,30.6,0,60,0,90.3
		c30.8,0.4,60.6-0.1,90.2,0.3c2.1,16.7,1.4,83.9-1.1,91.5c-29.2,0-58.7,0-88.6,0c0,30.4,0,59.8,0,90.3c4.5,0,8.4,0,12.4,0
		c113.6,0,227.2,0,340.8,0c3.3,0,6.7-0.1,10-0.2l-0.3-0.3c0.2,3.6,0.5,7.3,0.5,10.9c0,23.3,0,46.6,0,69.9c0,3.5,0.3,7,0.5,10.3
		c30.8,0,60.3,0,90.8,0c0-4.2,0-7.8,0-11.3c0.2-26.6,0.3-53.2,0.5-79.9l-0.2,0.3c29.6,0,59.2,0,90.2,0c0.4,12.7,0.2,24.6,0.2,36.4
		c0,12,0,24,0,36c0,12.3,0,24.7,0,37c0,12,0,24,0,36c0,11.9,0,23.8,0,36.6c60.6,0,120.2,0,179.4,0c2.3,7.8,3,621.6,0.8,635.6
		c-211,0-422.1,0-634.6,0c-0.7-9.6-0.2-19.5-0.3-29.3c-0.1-10,0-20,0-30c0-9.9,0-19.8,0-30.1c-3.7-0.3-6.3-0.6-8.9-0.6
		c-87,0-173.9,0-260.9,0c-1.3,0-2.7,0.1-4,0.2l0.3,0.2c0-30.1,0-60.2,0-90.3l-0.3,0.3c3.6-0.2,7.3-0.5,10.9-0.5
		c23.3,0,46.6,0,69.9,0c3.5,0,7-0.3,10.4-0.5c0-61,0-120.7,0-181.3c-30.8,0-61,0-91.2,0L1727.9,2273.8z M2366,2455.6
		c0,29.5,0,59.1,0,88.5c11.1,2.1,172.5,1.7,179.5-0.4c2.1-20.9,1.1-172.2-1.4-179.7c-28.9,0-58.1,0-87.9,0
		c-0.4,31.2,0.2,61-0.4,91.3c-5.4,0-9.4,0-13.3,0c-25.6,0.2-51.3,0.3-76.9,0.5c-0.1-60.5-0.3-121.1-0.4-182.5
		c-30.9,0.1-60.7-0.1-91.5,0.1c0,30.9,0,60.4,0,90.9c-30.6,0-60.1,0-89.4,0c-2,15.4-1.3,83.5,1,91c3.7,0,7.7,0,11.7,0
		C2253.3,2455.4,2309.7,2455.5,2366,2455.6z M1910.7,1909.9c0,90.9,0,181,0,271.5c91,0,181.4,0,272.1,0c0-90.8,0-180.8,0-271.5
		C2092.1,1909.9,2001.9,1909.9,1910.7,1909.9z M2545.7,2092c-60.6,0-120,0-179.6,0c0,30.1,0,59.6,0,89c14.6,2.1,172.8,1.4,179.6-0.7
		C2545.7,2151.1,2545.7,2121.9,2545.7,2092z M2002.2,2364.5c0,30.5,0,60.2,0,90.3c30.1,0,59.5,0,89.3,0c0-30.3,0-60.1,0-90.3
		C2061.6,2364.5,2032.4,2364.5,2002.2,2364.5z"/>
	<path class="st0" d="M364.3,2000.2c106.9,18.2,212,28.9,318.2,28.7c106.1-0.2,211.1-10.3,316.5-28.5c0,3.2,0.4,6.1-0.1,8.8
		c-4,26.1-8.5,52.2-12.2,78.4c-2.4,17-3.8,34.2-5.5,51.3c-1.5,15.2-3.1,30.3-4.2,45.5c-1.4,19.9-2.7,39.7-3.6,59.6
		c-0.9,20.9-1.7,41.7-1.9,62.6c-0.2,18.5-0.1,37.1,0.5,55.6c0.7,24.2,1.6,48.4,3.2,72.5c1.2,18.8,3.2,37.6,5.2,56.4
		c2.4,21.7,5.1,43.4,7.8,65.1c1.9,15.1,3.9,30.1,6.1,45.2c1.1,7.5,2.7,15,4,22.5c0.6,3.5,0.9,7.1,1.6,12.2
		c-106-18.8-211.8-28.8-318.3-28.8c-106,0-211.3,10-317.3,29c18.6-106.3,29.2-211.6,28.9-317.7
		C393.1,2212.3,383.3,2106.9,364.3,2000.2z M455.1,2545c76.6-11.1,151.7-18.6,227.8-18.7c76-0.1,150.9,8.2,226.5,18.5
		c-25.8-152-25.6-302.6,0-453.9c-151.9,26.2-302.4,25.7-454.1,0.2C480.5,2243.4,481.4,2393.9,455.1,2545z"/>
	<path class="st0" d="M365.1,363.3c105.8,18.7,211.1,29.1,317.3,29c106.1-0.1,211.5-10.1,317.7-29.1
		c-18.5,106.2-28.7,211.8-28.7,318.2c0,106.1,10.2,211.4,28.8,317.5c-6.8-1-12.4-1.9-18.1-2.8c-24.6-3.7-49.3-7-73.9-11
		c-33.2-5.4-66.7-6.6-100.1-9.6c-19.2-1.7-38.3-3.2-57.6-4c-20.2-0.8-40.5-0.9-60.7-1c-17.3-0.1-34.5-0.1-51.8,0.6
		c-26.2,1-52.4,2.4-78.5,4c-17.8,1.1-35.7,2.4-53.4,4.2c-21.1,2.2-42.1,4.9-63.1,7.6c-16.4,2.1-32.8,4.5-49.2,7
		c-5.9,0.9-11.6,2.5-17.5,3.4c-3.5,0.6-7.1,0.5-12,0.9c1.3-8,2.5-14.7,3.5-21.4c3.8-24.9,7.9-49.8,11.1-74.8c2.9-22,5.1-44.1,7-66.3
		c1.8-19.8,3-39.6,4.1-59.4c1.2-22.9,2.5-45.7,2.8-68.6c0.3-23.5-0.4-47.1-1-70.7c-0.4-17.9-0.9-35.8-2-53.6
		c-1.3-21.8-3.1-43.6-4.9-65.4c-1.4-16.5-2.9-33-4.9-49.4c-2.8-22.3-6-44.6-9.2-66.8c-1.4-9.5-3.5-18.8-5.1-28.3
		C365.3,370.6,365.4,367.7,365.1,363.3z M455.3,454.2c25.2,152,26.1,302.6-0.3,453.9c76.3-11.5,151.3-18.9,227.1-18.9
		c76.1,0,151.3,7.5,227.2,18.9c-12.8-76.3-19.3-151.8-19.4-227.8c-0.1-75.8,7.1-151,19.2-226.3C757.7,479.9,607.4,479.5,455.3,454.2
		z"/>
	<path class="st0" d="M2001.3,363.1c106.2,18.8,211.3,29.2,317.3,29.1c106.2-0.1,211.6-10,317.2-28.9c0.2,3.1,0.7,5.6,0.4,8.1
		c-4.3,26.8-9.3,53.6-13,80.5c-3.1,22.3-4.8,44.8-6.8,67.2c-1.7,18.8-3.4,37.6-4.3,56.4c-1.5,30.5-2.7,60.9-3.2,91.4
		c-0.5,25.2-0.2,50.4,0.4,75.5c0.3,15.3,1.7,30.5,2.9,45.7c1.8,24.4,3.6,48.8,5.9,73.1c1.7,17.8,4.3,35.5,6.6,53.2
		c2.2,16.5,4.5,32.9,6.9,49.3c1.1,7.8,2.7,15.6,4,23.4c0.6,3.5,1,7.1,1.6,12c-7.1-1.2-13.1-2.2-19.2-3.1c-24-3.6-48-6.9-71.9-10.6
		c-38.4-6.1-77.2-7.9-115.9-10.9c-19.8-1.5-39.7-2.7-59.5-3.5c-14.9-0.6-29.8-0.5-44.8-0.4c-22.6,0.1-45.2,0-67.7,0.8
		c-20.6,0.7-41.1,2.4-61.6,3.9c-18.2,1.3-36.3,2.6-54.4,4.4c-19.1,1.9-38.2,4.2-57.2,6.7c-18.1,2.3-36.2,5-54.2,7.6
		c-5.5,0.8-11,2.4-16.5,3.3c-3.8,0.6-7.6,0.5-12.2,0.8c18.4-105.8,28.9-211.2,28.6-317.4C2030,574.6,2020.1,469.4,2001.3,363.1z
		 M2546.6,453.9c-151.7,26-302.3,25.6-454.2,0.2c25.2,151.8,26,302.6-0.3,454c76.2-11.6,151.2-18.9,227.1-19
		c76.1-0.1,151.2,7.6,227.3,18.9C2520.8,756.1,2520.5,605.4,2546.6,453.9z"/>
	<path class="st0" d="M1273.6,1635.4c0.2,22.6,0.4,45.2,0.6,67.8c0.1,7.6,0,15.2,0,23.8c-30.3,0-59.8,0-90.3,0c0,30.4,0,59.8,0,89.7
		c-2.8,0.5-4.6,1.2-6.5,1.2c-57.6,0-115.1,0-172.7,0c-1,0-2-0.3-3-0.4l0.2,0.3c0-30.1,0-60.1,0-90.2l-0.3,0.3
		c29.9-0.3,59.7-0.5,89.4-0.8c2-14.1,1.4-83.4-0.8-91c-3.7,0-7.7,0-11.6,0c-25.7-0.2-51.3-0.3-77-0.5l0.3,0.3c0-30.1,0-60.1,0-90.2
		l-0.2,0.3c25.6-0.2,51.2-0.3,76.9-0.5c4,0,7.9,0,12.4,0c2.3-10.4,0.8-20.3,1.1-30.1c0.3-9.6,0.1-19.3,0.1-29c0-9.9,0-19.8,0-30.6
		c30.5,0,60,0,89.2,0c2.6-7.9,3.7-249.1,1.4-273.3c-3.6-0.1-7.5-0.4-11.3-0.4c-83.2,0-166.5,0-249.7-0.1c-4.3,0-8.5-0.8-12.8-1.2
		c0,0,0.2,0.2,0.2,0.2c0.3-3.3,1-6.5,1-9.8c0.1-23,0-46,0.1-68.9c0-3.3,0.3-6.5,0.4-10.3c151.6,0,302.7,0,454.3,0
		c0,29.9,0,59.4,0,89.7c-29.9,0-59.4,0-88.7,0c-2.5,7.7-3.2,166.1-1.1,181.7c29.6,0,59.4,0,90.2,0c0-29.8,0-59.3,0-89.3
		c2.9-0.3,4.8-0.6,6.7-0.6c56.3,0,112.6,0,168.9,0c1.7,0,3.3,0.3,5,0.5c0,0-0.2-0.3-0.2-0.3c0.2,27.6,0.3,55.2,0.5,82.8
		c0,2.2-0.3,4.5-0.5,7.9c-30,0-59.4,0-89.5,0c0,4.9,0,8.5,0,12.1c0,52.5,0,105.1,0,157.6c0,4-0.3,8-0.5,11.9c0,0,0.3-0.2,0.3-0.2
		c-30.1,0-60.1,0-90.2-0.1c0,0,0.2,0.3,0.2,0.3c-0.2-3.6-0.5-7.3-0.5-10.9c0-22.9,0-45.8,0-68.8c0-3.2-0.3-6.5-0.4-10.2
		c-30.3,0-60,0-90.9,0c0,4.1,0,7.7,0,11.2c-0.2,26.2-0.3,52.5-0.5,78.7l0.3-0.3c-29.8,0-59.7,0-90.5,0c0.1,30.7-0.2,60.3,0.2,90.3
		c31.1,0,60.6,0,90.2,0C1273.9,1635.8,1273.6,1635.4,1273.6,1635.4z"/>
	<path class="st0" d="M2366.7,1546.6c-0.4-2.6-1.2-5.2-1.2-7.8c-0.1-26-0.1-52,0-78c0-1.3,0.2-2.6,0.5-5.3
		c14.8-0.1,29.7-0.2,44.5-0.2c15,0,30,0,45,0c14.7,0,29.3,0,44,0c15,0,29.9,0,44.7,0c2.3-7.4,3.1-73.8,1.1-91.2
		c-29.2,0-58.7,0-88.5,0c0-91.5,0-181.6,0-272.2c29.8,0,58.9,0,89.1,0c0,60.1,0,119.9,0,181.1c30.7,0.8,60.5,0,91,0.5
		c0,90.5,0,180.3,0,271.5c-29.7,1-59.5-0.1-89.9,0.6c0,30.1,0,59.5,0,90.3c29.9,0,59.6,0,90,0c0,61.1,0,120.9,0,181.5
		c-30,0-59.7,0-90.6,0c0-29.7,0-59.2,0-89.7c-30.2,0-59.4,0-89.9,0c-0.1-15.8-0.2-30.6-0.2-45.5c0-15.3,0-30.7,0-46c0-15,0-30,0-45
		c0-14.9,0-29.8,0-45.2c-2.6-0.2-4.2-0.5-5.8-0.5c-26,0-52,0-78,0c-1.9,0-3.8,0.7-5.8,1.1
		C2366.6,1546.5,2366.7,1546.6,2366.7,1546.6z"/>
	<path class="st0" d="M1273.9,727.6c-56-0.1-112-0.1-167.9-0.2c-4,0-8,0-11.8,0c-2.4-7.2-3.2-73.4-1.1-91.1
		c29.6-0.8,59.4,0.2,89.8-0.5c0-30.1,0-59.6,0-90c-29.8,0-59.3,0-88.5,0c-2.6-7.6-3.3-74.9-1.1-90c29.4,0,58.9,0,89.7,0
		c1.1-10.6,0.4-20.5,0.6-30.3c0.1-10,0-20,0-30c0-10,0-20,0-29.7c7.7-2.1,73.6-2.7,90.4-0.8c0.6,11.6,0.2,23.5,0.3,35.3
		c0.1,12,0,24,0,36s0,24,0,36s0,24,0,36c0,11.9,0,23.9,0,36.5c30.7,0,60.4,0,91.1,0c0-29.6,0-58.8,0-88.6c60.4,0,119.9,0,180.1,0
		c0,29.4,0,58.8,0,89.2c-29.5,0-58.7,0-89.3,0c0,4.5,0,8.1,0,11.6c0,53.3,0,106.6-0.1,160c0,3.9-0.8,7.9-1.2,11.8
		c0,0,0.2-0.2,0.2-0.2c-1.6-0.3-3.2-1-4.8-1c-28.2,0-56.4,0.1-84.6,0.1c0,0,0.2,0.3,0.2,0.3c-0.2-3.6-0.5-7.3-0.5-10.9
		c0-23.3,0-46.6,0-69.9c0-3.5-0.3-7-0.5-10.3c-30.8,0-60.3,0-90.8,0c0,4.2,0,7.8,0,11.3c-0.2,26.6-0.3,53.2-0.5,79.9
		C1273.6,727.9,1273.9,727.6,1273.9,727.6z"/>
	<path class="st0" d="M909.9,1817.5c-30,0-60.1,0-90.1,0l0.2,0.3c-0.3-29.8-0.5-59.6-0.8-90.2c-31.1,0-61.3,0-91.5,0l0.2,0.3
		c0.1-4.3,0.2-8.7,0.2-13c0-112.6,0-225.1,0-337.7c0-3.9,0-7.8,0-12.5c30.7,0,60.4,0,91.1,0c0,30,0,59.5,0,90.3
		c12.6,0.6,24.5,0.2,36.3,0.3c12,0.1,24,0,36,0c12.3,0,24.6,0,37,0c12,0,24,0,36,0c11.9,0,23.9,0,36.8,0c0.2,30.8,0.3,60.6,0.5,90.5
		c0,0,0.2-0.3,0.2-0.3c-30.2,0-60.5,0-91.2,0c0,30.4,0,59.8,0,90.2c30.8,0,61,0,91.2,0l-0.3-0.3c0,30.8,0,61.5,0,92.3l0.3-0.3
		c-10.3-0.1-20.6-0.2-30.9-0.2c-10,0-20-0.1-29.9,0c-10.1,0.1-20.3-0.4-30.9,0.4c0,5.6,0,9.9,0,14.2c-0.2,25.3-0.3,50.5-0.5,75.8
		L909.9,1817.5z"/>
	<path class="st0" d="M1819.7,999.5c0,60.7,0,121.5,0,182.2l0.3-0.2c-4,0.2-8,0.5-12,0.5c-53,0-105.9,0-158.9,0c-3.6,0-7.1,0-11.6,0
		c0,9.5-0.1,17.7,0,26c0.2,22,0.4,43.9,0.6,65.9c-30.8-0.1-61.6-0.2-92.4-0.3c0,0,0.2,0.3,0.2,0.3c0-30.2,0-60.5,0-91.7
		c-30,0-59.2,0-89.1,0c0-91.1,0-181.2,0-272.1c29.3,0,58.5,0,89,0c0.7,11.5,0.2,23.3,0.3,35.2c0.1,12,0,24,0,36c0,12.3,0,24.7,0,37
		c0,12,0,24,0,36c0,11.9,0,23.8,0,36.4c30.5,0,60,0,91,0c0.7-11.6,0.2-23.5,0.3-35.3c0.1-12,0-24,0-36c0-12.3,0-24.7,0-37
		c0-12,0-24,0-36c0-11.9,0-23.9,0-35.2c1.4-0.9,1.9-1.5,2.5-1.5c29.3,0,58.6,0.1,87.9,0.2l-0.2-0.3c0.3,29.8,0.5,59.6,0.8,90.2
		c31.1,0,61.3,0,91.5,0L1819.7,999.5z"/>
	<path class="st0" d="M1454.9,728.6c3.9-0.4,7.9-1.2,11.8-1.2c53-0.1,105.9-0.1,158.9-0.1c3.6,0,7.2,0,11.6,0c0-61,0-120.8,0-181.7
		c30.4,0,59.8,0,89.7,0c0.5-2.5,1.1-4,1.1-5.6c0.1-26.3,0.1-52.6,0-79c0-1.6-0.6-3.2-1-4.8l-0.2,0.2c3.6-0.4,7.2-1.2,10.8-1.2
		c23.6-0.1,47.3,0,70.9-0.1c3.2,0,6.5-0.3,10.6-0.5c0-30.1,0-59.6,0-88.8c7.8-2.4,79.4-2.8,90.3-0.7c0,59.6,0,119.3,0,180.1
		c-30.1,0-59.5,0-89.5,0c-0.2,2.6-0.5,4.1-0.5,5.7c0,58.9,0.1,117.8,0.2,176.8c0,0,0.2-0.3,0.2-0.3c-10.3-0.1-20.6-0.2-30.9-0.2
		c-10,0-20-0.1-29.9,0c-10.1,0.1-20.3-0.4-30.9,0.4c0,5.6,0,9.9,0,14.2c-0.2,25.3-0.3,50.5-0.5,75.8c0,0,0.2-0.3,0.2-0.3
		c-3,0.2-6,0.5-8.9,0.5c-84.1,0-168.2,0-252.3,0c-3,0-5.9,0-10.1,0c-0.1-3.8-0.3-6.9-0.3-10.1c0-23.3,0-46.5-0.1-69.8
		c0-3.3-0.6-6.5-1-9.7C1455.1,728.4,1454.9,728.6,1454.9,728.6z"/>
	<path class="st0" d="M1455.2,2274.2c-1.9-0.3-3.9-0.8-5.8-0.9c-25.7-0.1-51.5-0.1-77.2,0c-1.9,0-3.8,0.6-5.7,1l0.2,0.2
		c-0.4-3.9-1.2-7.9-1.2-11.8c-0.1-53-0.1-106-0.1-159c0-3.6,0-7.2,0-11.8c-13.5-1.3-26.4-0.4-39.2-0.6c-13-0.2-26,0-39,0
		c-13,0-26,0-39,0c-12.7,0-25.3,0-38,0c-13,0-26,0-39,0s-26,0-39,0c-12.9,0-25.9,0-39.4,0c0-60.8,0-120.6,0-180.4
		c7.3-2,168.4-2.5,181.3-0.4c0,29.3,0,58.8,0,89.2c90.9,0,180.7,0,271.3,0c0,30.8,0,60.5,0,91.3c-29.5,0-58.6,0-89.3,0
		c0,4.5,0,8,0,11.6c0,53.3,0,106.7-0.1,160c0,3.9-0.7,7.9-1.1,11.8C1455,2274.5,1455.2,2274.2,1455.2,2274.2z"/>
	<path class="st0" d="M638.4,1274.2c-0.3,3.9-0.9,7.9-0.9,11.8c-0.1,82,0,163.9,0,245.9c0,3.9,0,7.9,0,13.1
		c-20.6,0.5-40.4,0.2-60.3,0.2c-20,0.1-40,0-60,0c-19.9,0-39.9,0-61.1,0c0,61.4,0,121.9,0,182.5c0,60.2,0,120.4,0,181
		c-30.5,0-59.7,0-88.8,0c-2.3-7-3.3-432.1-1-453.1c59.3,0,118.7,0,179.4,0c0.7-12.8,0.3-24.7,0.4-36.5c0.1-12,0-24,0-36
		c0-12.3,0-24.7,0-37c0-12,0-24,0-36c0-11.9,0-23.8,0-36.2c3.2-0.3,5.5-0.7,7.7-0.7c25.7,0,51.3-0.1,77,0c2.6,0,5.2,0.7,7.8,1.1
		C638.6,1274.5,638.4,1274.2,638.4,1274.2z"/>
	<path class="st0" d="M1638,2545.6c-30.2,0-60.5,0-91.8,0c0,30.4,0,59.8,0,89.9c-30.3,0-59.4,0-89.3,0c0-59.6,0-119.1,0-179.6
		c29.2,0,58.4,0,87.2,0c2.5-7.8,3.3-73.8,1.3-91.7c-29.2,0-58.7,0-88.6,0c-0.2-4.6-0.5-7.8-0.5-11.1c0-23,0-46-0.1-69
		c0-3.3-0.5-6.6-0.8-9.8c0,0-0.3,0.2-0.3,0.3c2.9-0.4,5.8-1.1,8.8-1.1c86.1-0.1,172.1,0,258.2,0c2,0,4,0.3,5.9,0.5
		c0,0-0.2-0.3-0.2-0.3c0.2,2.3,0.5,4.6,0.5,6.9c0,55.8,0,111.6,0,167.4c0,2.6-0.3,5.3-0.5,7.9l0.3-0.3c-29.8,0-59.6,0-90.2,0
		c0,30.7,0,60.5,0,90.3L1638,2545.6z"/>
	<path class="st0" d="M2001.7,1273.8c25.6-0.2,51.3-0.3,76.9-0.5c3.9,0,7.9,0,13.2,0c0.5-12.5,0.2-24.3,0.3-36.2c0.1-12,0-24,0-36
		c0-12.3,0-24.7,0-37c0-12,0-24,0-36c0-11.9,0-23.8,0-36.3c30.6,0,60.1,0,89.6,0c0.3,0.3,0.5,0.5,0.8,0.7c0.2,0.2,0.5,0.5,0.6,0.8
		c0.1,0.3,0.1,0.6,0.2,1c0.1,1,0.2,2,0.2,3c0.1,88,0.2,175.9,0.3,263.9c0,0.3,0.1,0.7,0.3,1.6c1.6,0.3,3.5,1.1,5.3,1.1
		c26.3,0.1,52.6,0.1,79,0c1.6,0,3.2-0.6,4.8-1c0,0-0.2-0.2-0.2-0.2c0.4,2.9,1.2,5.8,1.2,8.8c0.1,55.8,0.1,111.6,0,167.4
		c0,2.3-0.4,4.6-0.6,6.9l0.4-0.4c-29.9-0.1-59.8-0.3-90.6-0.4c0-30.3,0-59.5,0-89.6c-31.2,0-61.5,0-91.7,0l0.3,0.3
		c0-30.2,0-60.4,0-91.8c-10.7,0-20.6,0-30.5,0c-10,0-20,0.1-30,0c-9.8-0.1-19.7,0.4-29.5-0.3c0-30.9,0-60.5,0-90.1
		C2001.9,1273.6,2001.7,1273.8,2001.7,1273.8z"/>
	<path class="st0" d="M820.7,1180.7c-3.6,0.4-7.2,1.2-10.8,1.2c-23.6,0.1-47.3,0-70.9,0.1c-3.2,0-6.5,0.3-10.6,0.5
		c0,30.1,0,59.6,0,90.4c-4,0.2-7.2,0.4-10.3,0.4c-23.3,0-46.6,0-69.9,0.1c-3.3,0-6.6,0.5-9.8,0.8c0,0,0.2,0.3,0.3,0.3
		c-0.4-3.6-1.1-7.2-1.1-10.8c-0.1-23-0.1-46-0.1-69c0-3.6,0-7.3,0-10.7c-7.3-2.3-164.3-3.2-181.1-1c0,29.6,0,59.4,0,89.7
		c-30.7,0-60.2,0-90.3,0c0-60.2,0-120.1,0-180.6c150.7,0,301.5,0,452.9,0c0.2,3.5,0.4,6.8,0.4,10c0,23,0,46,0.1,69
		c0,3.3,0.7,6.5,1.1,9.8C820.6,1180.9,820.7,1180.7,820.7,1180.7z"/>
	<path class="st0" d="M1273.6,2545.6c0,29.6,0,59.2,0,88.8c-7,1.9-168.2,2.5-180.9,0.5c0-150.3,0-300.8,0-451.2
		c6.8-2.1,74.8-2.8,90.7-0.7c0,59.9,0,120.1,0,180.2c0,60.2,0,120.5,0,182.1c4.1,0,7.3,0,10.5,0c23,0,46,0,69,0
		c3.6,0,7.3,0.3,10.9,0.5L1273.6,2545.6z"/>
	<path class="st0" d="M1727.9,909.8c0-30.8,0-61.6,0-92.3c0,0-0.2,0.3-0.2,0.3c10.3,0.1,20.6,0.2,30.9,0.2c10,0,20,0.1,29.9,0
		c10.1-0.1,20.3,0.4,30.9-0.4c0-5.6,0-9.9,0-14.2c0.2-25.3,0.3-50.5,0.5-75.8c0,0-0.2,0.3-0.2,0.3c29.6,0,59.2,0,88.8,0
		c2,6.9,2.7,257.3,0.7,270.9c-0.6,0.3-1.1,0.9-1.7,0.9c-29.3,0-58.6-0.1-87.9-0.2c0,0,0.2,0.3,0.2,0.3c-0.3-29.8-0.5-59.6-0.8-90.2
		c-31.1,0-61.3,0-91.5,0L1727.9,909.8z"/>
	<path class="st0" d="M2273.6,1545.9c16.9-0.2,33.8-0.4,50.6-0.6c10.9-0.1,21.9-0.1,32.8,0c3.2,0,6.5,0.8,9.7,1.2
		c0,0-0.1-0.1-0.1-0.1c-0.4,2.6-1.1,5.1-1.1,7.7c-0.1,86.5,0,173.1,0,259.6c0,1.3,0.2,2.7,0.2,4c0,0,0.2-0.3,0.2-0.3
		c-10.9,0.2-21.8,0.5-32.8,0.5c-19.9,0-39.7-0.3-59.6-0.5c0,0,0.3,0.3,0.3,0.3c0.1-49.2,0.2-98.4,0.2-147.6
		c0-41.6-0.1-83.1-0.2-124.7C2273.9,1545.5,2273.6,1545.9,2273.6,1545.9z"/>
	<path class="st0" d="M1365.7,727.6c-0.1,4-0.3,8-0.3,12c0,82.3,0,164.7,0,247c0,4,0,7.9,0,11.6c-7.7,2.2-76.9,2.8-91.3,0.8
		c0-3.7,0-7.6,0-11.4c0-82.7,0-165.3,0-248c0-4-0.2-8-0.3-12c0,0-0.2,0.3-0.2,0.3c8.3-0.2,16.5-0.5,24.8-0.5
		c22.5,0.1,45,0.3,67.6,0.5L1365.7,727.6z"/>
	<path class="st0" d="M1819.7,1181.7c29.6,0,59.2,0,90.1,0c0.7-9.9,0.2-19.8,0.3-29.6c0.1-10,0-20,0-29.9c0-9.9,0-19.8,0-30.3
		c30.8,0,60.5,0,91.3,0c0,4.1,0,7.7,0,11.2c0,52.9,0,105.8,0,158.7c0,4,0.2,8,0.2,12c0,0,0.2-0.3,0.2-0.3
		c-59.8-0.1-119.5-0.1-179.3-0.1c-1,0-2,0.3-2.9,0.4c-0.1-11.6-0.3-23.2-0.2-34.8c0.1-19.2,0.3-38.4,0.5-57.6L1819.7,1181.7z"/>
	<path class="st0" d="M1182.8,999.5c-30.3,0-59.9,0-90.1,0c0-60.3,0-120.1,0-181.3c29.9-0.3,59.7-0.1,90.1-0.2
		C1182.8,878.9,1182.8,938.7,1182.8,999.5z"/>
	<path class="st0" d="M727.9,1817.5c-3,0.2-6,0.5-9,0.5c-54,0-108,0-162,0c-3.2,0-6.5-0.3-10.2-0.4c0-30.1,0-59.6,0-89.5
		c2.8-0.3,5-0.6,7.3-0.6c56.3,0,112.7,0,169,0c1.7,0,3.3,0.3,5,0.5c0,0-0.2-0.3-0.2-0.3c0,30.1,0,60.1,0,90.2L727.9,1817.5z"/>
	<path class="st0" d="M1001.7,1817.5c0,30.2,0,60.4,0,91.2c-30.8,0-60.3,0-91.1,0c-1.4-30.3,0.1-60.8-0.8-91.2c0,0-0.2,0.3-0.2,0.3
		c30.8,0,61.5,0,92.3,0L1001.7,1817.5z"/>
	<path class="st0" d="M819.7,1817.5c0,30.2,0,60.4,0,91.2c-30.8,0-60.3,0-91.1,0c-1.4-30.3,0.1-60.8-0.8-91.2c0,0-0.2,0.3-0.2,0.3
		c30.8,0,61.5,0,92.3,0L819.7,1817.5z"/>
	<path class="st0" d="M1273.9,2545.9c0-29.6,0-59.2,0-88.5c7.7-2.4,73.9-3.2,90.9-1.2c0,29.1,0,58.2,0,88.7
		c-30.2,1.4-60.7-0.1-91.1,0.8C1273.6,2545.6,1273.9,2545.9,1273.9,2545.9z"/>
	<path class="st0" d="M1727.1,456.4c-3.3-0.3-6.5-1-9.8-1c-23-0.1-46,0-68.9-0.1c-3.3,0-6.5-0.3-10.3-0.4c0-30.3,0-60.1,0-90.3
		c30,0,59.5,0,89.4,0c0.3,2.8,0.6,5,0.6,7.3c0,25.6,0.1,51.3,0,76.9c0,2.6-0.7,5.2-1.2,7.8C1726.9,456.6,1727.1,456.4,1727.1,456.4z
		"/>
	<path class="st0" d="M1366.5,2274.4c-0.3,3.3-1,6.5-1,9.8c-0.1,23,0,46-0.1,68.9c0,3.3-0.3,6.5-0.4,10.3c-30.3,0-60.1,0-90.3,0
		c0-30,0-59.5,0-89.4c2.8-0.3,5-0.6,7.3-0.6c25.6,0,51.3-0.1,76.9,0c2.6,0,5.2,0.7,7.8,1.1
		C1366.7,2274.6,1366.5,2274.4,1366.5,2274.4z"/>
	<path class="st0" d="M2274.7,1091.8c30.5,0,60,0,90.1,0c0,29.9,0,59.4,0,89.5c-30,0-59.8,0-90.1,0
		C2274.7,1151.6,2274.7,1122.2,2274.7,1091.8z"/>
	<path class="st0" d="M908.9,1180.8c0.4,2.6,1.2,5.2,1.2,7.7c0.1,26.1,0.1,52.2,0,78.3c0,2.6-0.8,5.1-1.2,7.7c0,0,0.2-0.2,0.2-0.2
		c-3.3-0.3-6.5-1-9.8-1c-23-0.1-46,0-69-0.1c-3.2,0-6.5-0.3-10.1-0.4c-0.3-2.9-0.7-5.1-0.7-7.4c0-25.7-0.1-51.3,0-77
		c0-2.6,0.8-5.2,1.2-7.8c0,0-0.1,0.1-0.1,0.1c1.9,0.4,3.8,1.1,5.7,1.1c25.7,0.1,51.4,0.1,77.2,0c1.9,0,3.8-0.6,5.7-1
		C909.1,1181,908.9,1180.8,908.9,1180.8z"/>
	<path class="st0" d="M908.9,1274.6c2.3-0.4,4.5-1.1,6.8-1.2c26.3-0.1,52.6-0.1,78.9,0c1.9,0,3.8,0.4,6.3,0.6c0,29.9,0,59.3,0,89.4
		c-30.2,0-60,0-90.3,0c-0.2-3.8-0.4-7.1-0.4-10.3c0-23,0-46-0.1-68.9c0-3.3-0.6-6.5-1-9.8C909.1,1274.4,908.9,1274.6,908.9,1274.6z"
		/>
	<path class="st0" d="M2273.1,1363c0.3-3.3,1-6.5,1-9.8c0.1-23,0-46,0.1-68.9c0-3.3,0.3-6.5,0.4-10.3c30.3,0,60.1,0,90.3,0
		c0,30,0,59.5,0,89.4c-2.8,0.3-5,0.6-7.3,0.6c-25.6,0-51.3,0.1-76.9,0c-2.6,0-5.2-0.7-7.8-1.1
		C2272.9,1362.8,2273.1,1363,2273.1,1363z"/>
	<path class="st0" d="M1365.7,1545.6c0,29.6,0,59.2,0,88.5c-1.7,0.9-2.5,1.7-3.4,1.7c-29.6-0.1-59.2-0.2-88.8-0.3
		c0,0,0.4,0.4,0.4,0.4c0-30.1,0-60.2,0-90.3c0,0-0.3,0.3-0.3,0.3c7.9-0.2,15.9-0.5,23.8-0.5c22.8,0.1,45.7,0.3,68.5,0.5
		L1365.7,1545.6z"/>
	<path class="st0" d="M1727.9,1909.6c-15-0.1-30-0.2-44.9-0.3c-14.6,0-29.2,0-43.7,0c-0.7-1.4-1.6-2.2-1.6-3.1
		c0.1-29.6,0.2-59.2,0.3-88.8l-0.4,0.4c29.8,0,59.7,0,88.9,0c0.8,2.1,1.3,2.7,1.3,3.3c-0.1,29.6-0.2,59.2-0.3,88.8L1727.9,1909.6z"
		/>
	<path class="st0" d="M1727.6,2545.6c0,29.6,0,59.2,0,88.8c-6.8,2.1-76.2,2.6-89,0.7c-0.3-0.6-0.9-1.1-0.9-1.7
		c0-29.3,0.1-58.5,0.2-87.8l-0.3,0.2c30.1,0,60.1,0,90.2,0L1727.6,2545.6z"/>
	<path d="M1819.7,1273.8c1-0.1,2-0.4,2.9-0.4c59.8,0,119.5,0.1,179.3,0.1c0,29.6,0,59.2,0,90.1c9.8,0.7,19.6,0.2,29.5,0.3
		c10,0.1,20,0,30,0c9.9,0,19.8,0,30.5,0c0,31.4,0,61.6,0,91.8c-29.2-0.1-58.5-0.2-87.7-0.2c-0.6,0-1.1,0.5-2,1c0,29.2,0,58.5,0,88.1
		c30.2,0,59.6,0,88.7,0c0.5-1.2,1-1.8,1-2.4c-0.1-28.9-0.2-57.8-0.2-86.7c30.2,0,60.5,0,91.7,0c0,30.1,0,59.2,0,89.6
		c30.9,0.1,60.7,0.3,90.6,0.4c0.1,41.6,0.2,83.1,0.2,124.7c0,49.2-0.1,98.4-0.2,147.6c-3.3,0.1-6.7,0.2-10,0.2
		c-113.6,0-227.2,0-340.8,0c-3.9,0-7.8,0-12.4,0c0-30.5,0-59.9,0-90.3c29.9,0,59.4,0,88.6,0c2.5-7.6,3.2-74.9,1.1-91.5
		c-29.6-0.4-59.3,0.1-90.2-0.3c0-30.3,0-59.8,0-90.3c-30.9,0-60.8,0-90.6,0c0,0,0.2,0.3,0.2,0.3c-0.2-3.6-0.5-7.3-0.5-10.9
		c0-23,0-45.9,0-68.9c0-3.2-0.3-6.5-0.5-10.5c-30.9,0-61.1,0-91.3,0l0.3,0.3c0.8-30.4-0.6-60.8,0.8-91.8c16.1,0,31,0.1,46,0
		c14.8-0.1,29.6,0.4,44.8-0.4c0-5.7,0-10,0-14.3c0.2-25.3,0.3-50.5,0.5-75.8L1819.7,1273.8z M2182.9,1636.6c-30.7,0-60.2,0-90.1,0
		c0,30.4,0,60.1,0,89.7c13.2,1.9,82.9,1.4,90.1-0.6C2182.9,1696.2,2182.9,1666.8,2182.9,1636.6z"/>
	<path d="M1910.7,1909.9c91.2,0,181.4,0,272.1,0c0,90.6,0,180.7,0,271.5c-90.8,0-181.1,0-272.1,0
		C1910.7,2090.9,1910.7,2000.8,1910.7,1909.9z M2002.2,2000.5c-2,20.3-1.2,83.5,1.1,90.3c20.3,1.8,81.1,1,88.2-1.1
		c1.9-19.1,1.1-82.3-1.2-89.2C2061.1,2000.5,2032,2000.5,2002.2,2000.5z"/>
	<path d="M1545.7,1273.6c30.8,0.1,61.6,0.2,92.4,0.3l-0.4-0.4c-0.1,58.6-0.1,117.2-0.1,175.8c0,1.8,0.7,3.7,1.1,6
		c4.5,0,8.4,0,12.4,0c25.6,0.2,51.2,0.3,76.9,0.5l-0.3-0.3c0.3,29.5,0.5,59.1,0.8,89.8c4.4,0,8,0,11.6,0c26.7,0.2,53.3,0.3,80,0.5
		c0,0-0.2-0.3-0.2-0.3c0,29.6,0,59.1,0,88.4c-7.9,2.4-163.7,3.3-181.9,1.1c0-29.3,0-58.7,0-88.6c-2.8-0.5-4.7-1.1-6.5-1.1
		c-57.2,0-114.5,0-171.7,0c-1.3,0-2.6,0.3-4,0.5c0.2-4,0.5-8,0.5-11.9c0-52.5,0-105.1,0-157.6c0-3.6,0-7.2,0-12.1
		c30.2,0,59.5,0,89.5,0c0.2-3.5,0.5-5.7,0.5-7.9C1546,1328.7,1545.8,1301.2,1545.7,1273.6z"/>
	<path d="M2366,2455.6c-56.3-0.1-112.6-0.2-168.9-0.2c-4,0-7.9,0-11.7,0c-2.3-7.5-2.9-75.6-1-91c29.3,0,58.8,0,89.4,0
		c0-30.5,0-60,0-90.9c30.8-0.3,60.6-0.1,91.5-0.1c0.1,61.4,0.3,122,0.4,182.5L2366,2455.6z"/>
	<path d="M1727.6,1909.9c0.1-29.6,0.2-59.2,0.3-88.8c0-0.6-0.5-1.2-1.3-3.3c-29.2,0-59.1,0-88.9,0c0-29.6,0-59.2,0-88.7
		c7.1-2.1,166.4-2.8,181.1-0.8c0,59.7,0,119.5,0,180.6c-3.3,0.2-6.8,0.5-10.3,0.5c-23.3,0-46.6,0-69.9,0
		C1734.9,1909.4,1731.3,1909.7,1727.6,1909.9z"/>
	<path d="M2365.7,2455.8c25.6-0.2,51.3-0.3,76.9-0.5c4,0,7.9,0,13.3,0c0.6-30.4,0-60.1,0.4-91.3c29.8,0,58.9,0,87.9,0
		c2.5,7.5,3.5,158.8,1.4,179.7c-7,2.1-168.4,2.5-179.5,0.4c0-29.4,0-59,0-88.5C2366,2455.6,2365.7,2455.8,2365.7,2455.8z"/>
	<path d="M1727.6,2455.9c0.2-2.6,0.5-5.3,0.5-7.9c0-55.8,0-111.6,0-167.4c0-2.3-0.3-4.6-0.5-6.9c30.2,0,60.4,0,91.2,0
		c0,60.5,0,120.3,0,181.3c-3.4,0.2-6.9,0.5-10.4,0.5c-23.3,0-46.6,0-69.9,0C1734.9,2455.4,1731.3,2455.7,1727.6,2455.9z"/>
	<path d="M2545.7,2092c0,29.8,0,59,0,88.3c-6.8,2.1-165,2.8-179.6,0.7c0-29.4,0-58.8,0-89C2425.7,2092,2485.1,2092,2545.7,2092z"/>
	<path d="M2273.6,1817.5c19.9,0.2,39.7,0.4,59.6,0.5c10.9,0,21.8-0.3,32.8-0.5c-0.2,26.6-0.4,53.2-0.5,79.9c0,3.6,0,7.1,0,11.3
		c-30.6,0-60,0-90.8,0c-0.2-3.4-0.5-6.8-0.5-10.3c0-23.3,0-46.6,0-69.9C2274.1,1824.8,2273.8,1821.1,2273.6,1817.5z"/>
	<path d="M2002.2,2364.5c30.3,0,59.4,0,89.3,0c0,30.2,0,59.9,0,90.3c-29.7,0-59.2,0-89.3,0C2002.2,2424.7,2002.2,2395,2002.2,2364.5
		z"/>
	<path d="M1727.9,2545.8c-30.1,0-60.1,0-90.2,0c0-29.8,0-59.6,0-90.3c30.6,0,60.4,0,90.2,0
		C1727.9,2485.6,1727.9,2515.7,1727.9,2545.8z"/>
	<path d="M455.1,2545c26.3-151,25.4-301.6,0.2-453.8c151.7,25.4,302.2,25.9,454.1-0.2c-25.6,151.4-25.8,301.9,0,453.9
		c-75.6-10.4-150.5-18.6-226.5-18.5C606.8,2526.4,531.6,2533.9,455.1,2545z M818.5,2181.9c-91.8,17-181.5,17-272.6,0.1
		c17.5,91,17,180.9,0.2,272.6c91.5-17.4,181.5-17.1,272.2-0.3C801.6,2362.9,801.7,2273,818.5,2181.9z"/>
	<path d="M455.3,454.2c152.1,25.4,302.4,25.7,453.9-0.2C897.1,529.3,890,604.5,890,680.3c0.1,76.1,6.6,151.6,19.4,227.8
		c-75.9-11.4-151.1-19-227.2-18.9c-75.9,0-150.8,7.4-227.1,18.9C481.4,756.7,480.5,606.2,455.3,454.2z M818.3,817.4
		c-16.7-91.4-16.7-181.2,0.2-272.5C727,562.1,637,561.8,545.9,545c2,10.3,4.2,18.9,5.2,27.6c2.1,18.4,3.8,36.8,5.4,55.2
		c1.1,13.8,2.5,27.7,2.4,41.6c-0.1,21.5-0.7,43-2.2,64.4c-1.3,19.2-4,38.2-6.3,57.3c-1,8.3-2.6,16.5-4.1,26.1
		C637.6,800.8,727.2,800.2,818.3,817.4z"/>
	<path d="M2546.6,453.9c-26.1,151.5-25.7,302.1-0.2,454.1c-76.1-11.3-151.2-18.9-227.3-18.9c-75.9,0.1-150.9,7.4-227.1,19
		c26.3-151.4,25.5-302.2,0.3-454C2244.2,479.6,2394.9,479.9,2546.6,453.9z M2183.2,816.7c45.9-6.6,90.7-12.1,136.1-12.1
		c45.6-0.1,90.6,5.5,136,12.2c-17-91-16.6-180.8,0.1-271.7c-46.2,8.1-91.2,12.7-136.6,12.7c-45.3,0-90.2-4.9-135.9-12.5
		C2200.4,636.3,2199.9,726,2183.2,816.7z"/>
	<path d="M1366,1545.9c-22.8-0.2-45.7-0.4-68.5-0.5c-7.9,0-15.9,0.3-23.8,0.5c0.2-26.2,0.4-52.5,0.5-78.7c0-3.6,0-7.1,0-11.2
		c30.8,0,60.5,0,90.9,0c0.2,3.8,0.4,7,0.4,10.2c0,22.9,0,45.8,0,68.8C1365.5,1538.6,1365.8,1542.2,1366,1545.9z"/>
	<path d="M1001.9,1635.8c-30.2,0-60.5,0-91.2,0c0-30.4,0-59.8,0-90.2c30.8,0,61,0,91.2,0C1001.9,1575.6,1001.9,1605.7,1001.9,1635.8
		z"/>
	<path d="M1001.7,1727.8c0-30.8,0-61.5,0-92.3c25.7,0.2,51.3,0.3,77,0.5c4,0,7.9,0,11.6,0c2.2,7.7,2.8,76.9,0.8,91
		C1061.4,1727.3,1031.6,1727.6,1001.7,1727.8z"/>
	<path d="M1001.9,1817.8c-30.8,0-61.5,0-92.3,0c0.2-25.3,0.3-50.5,0.5-75.8c0-4.3,0-8.6,0-14.2c10.6-0.8,20.8-0.3,30.9-0.4
		c10-0.1,20,0,29.9,0c10.3,0,20.6,0.1,30.9,0.2C1001.9,1757.6,1001.9,1787.7,1001.9,1817.8z"/>
	<path d="M1273.9,1545.5c0,30.1,0,60.2,0,90.3c-29.6,0-59.2,0-90.2,0c-0.5-29.9-0.1-59.6-0.2-90.3
		C1214.3,1545.5,1244.1,1545.5,1273.9,1545.5z"/>
	<path d="M1366,727.9c-22.5-0.2-45-0.4-67.6-0.5c-8.3,0-16.5,0.3-24.8,0.5c0.2-26.6,0.4-53.2,0.5-79.9c0-3.6,0-7.1,0-11.3
		c30.6,0,60,0,90.8,0c0.2,3.4,0.5,6.8,0.5,10.3c0,23.3,0,46.6,0,69.9C1365.5,720.6,1365.8,724.2,1366,727.9z"/>
	<path d="M819.9,1817.8c-30.8,0-61.5,0-92.3,0c0-30.1,0-60.1,0-90.2c30.2,0,60.4,0,91.5,0C819.4,1758.1,819.7,1788,819.9,1817.8z"/>
	<path d="M1820,1181.5c-0.2,19.2-0.4,38.4-0.5,57.6c0,11.6,0.2,23.2,0.2,34.8c0,0,0.2-0.3,0.2-0.3c-60.8,0-121.5,0-182.3,0l0.4,0.4
		c-0.2-22-0.4-43.9-0.6-65.9c-0.1-8.3,0-16.5,0-26c4.5,0,8.1,0,11.6,0c53,0,105.9,0,158.9,0C1812,1182,1816,1181.7,1820,1181.5z"/>
	<path d="M1727.7,909.6c30.2,0,60.4,0,91.5,0c0.3,30.6,0.5,60.4,0.8,90.2c-30.2,0-60.4,0-91.5,0
		C1728.2,969.2,1727.9,939.4,1727.7,909.6z"/>
	<path d="M1819.9,727.6c-0.2,25.3-0.3,50.5-0.5,75.8c0,4.3,0,8.6,0,14.2c-10.6,0.8-20.8,0.3-30.9,0.4c-10,0.1-20,0-29.9,0
		c-10.3,0-20.6-0.1-30.9-0.2c0.2-25.3,0.3-50.5,0.5-75.8c0-4.3,0-8.6,0-14.2c10.6-0.8,20.8-0.3,30.9-0.4c10-0.1,20,0,29.9,0
		C1799.3,727.4,1809.6,727.5,1819.9,727.6z"/>
	<path class="st0" d="M1637.7,1273.5c60.8,0,121.5,0,182.3,0c-0.2,25.3-0.3,50.5-0.5,75.8c0,4.3,0,8.6,0,14.3
		c-15.3,0.8-30,0.3-44.8,0.4c-14.9,0.1-29.9,0-46,0c-1.3,31,0.1,61.4-0.8,91.8c-25.6-0.2-51.2-0.3-76.9-0.5c-4,0-7.9,0-12.4,0
		c-0.5-2.4-1.1-4.2-1.1-6C1637.5,1390.7,1637.6,1332.1,1637.7,1273.5z"/>
	<path class="st0" d="M2182.9,1636.6c0,30.1,0,59.6,0,89c-7.2,2-76.9,2.6-90.1,0.6c0-29.6,0-59.3,0-89.7
		C2122.7,1636.6,2152.2,1636.6,2182.9,1636.6z"/>
	<path class="st0" d="M1820,1545.9c-26.7-0.2-53.3-0.3-80-0.5c-3.6,0-7.1,0-11.6,0c-0.3-30.7-0.5-60.2-0.8-89.8
		c30.2,0,60.4,0,91.3,0c0.2,4,0.5,7.2,0.5,10.5c0,23,0,45.9,0,68.9C1819.5,1538.6,1819.8,1542.2,1820,1545.9z"/>
	<path class="st0" d="M2091.6,1455.6c0.1,28.9,0.2,57.8,0.2,86.7c0,0.6-0.5,1.2-1,2.4c-29.2,0-58.6,0-88.7,0c0-29.6,0-58.9,0-88.1
		c0.9-0.4,1.4-1,2-1c29.2,0,58.5,0.1,87.7,0.2C2091.9,1455.8,2091.6,1455.6,2091.6,1455.6z"/>
	<path class="st0" d="M2002.2,2000.5c29.8,0,58.9,0,88.1,0c2.3,6.9,3.2,70.1,1.2,89.2c-7.1,2.1-67.9,2.8-88.2,1.1
		C2001,2084,2000.2,2020.8,2002.2,2000.5z"/>
	<path class="st0" d="M818.5,2181.9c-16.8,91.1-16.9,181-0.2,272.4c-90.7-16.8-180.6-17.2-272.2,0.3c16.8-91.7,17.2-181.6-0.2-272.6
		C636.9,2198.9,726.6,2198.9,818.5,2181.9z"/>
	<path class="st0" d="M818.3,817.4c-91.1-17.2-180.7-16.7-271.9-0.2c1.5-9.6,3.1-17.8,4.1-26.1c2.3-19.1,4.9-38.2,6.3-57.3
		c1.5-21.4,2.1-42.9,2.2-64.4c0.1-13.9-1.3-27.8-2.4-41.6c-1.5-18.4-3.2-36.8-5.4-55.2c-1-8.7-3.2-17.3-5.2-27.6
		c91.1,16.8,181.1,17.1,272.6-0.1C801.6,636.2,801.6,726,818.3,817.4z"/>
	<path class="st0" d="M2183.2,816.7c16.7-90.7,17.1-180.4-0.3-271.4c45.7,7.7,90.6,12.6,135.9,12.5c45.4,0,90.4-4.6,136.6-12.7
		c-16.7,90.9-17.1,180.7-0.1,271.7c-45.4-6.7-90.4-12.3-136-12.2C2274,804.7,2229.2,810.1,2183.2,816.7z"/>
</g>
</svg>
